<svg width="500" height="500" viewBox="0 0 500 500" fill="none" xmlns="http://www.w3.org/2000/svg">
<rect width="500" height="500" rx="90" fill="url(#paint0_linear_20_13)"/>
<path d="M382.55 176.118C378.243 166.146 372.034 157.11 364.268 149.515C356.498 141.897 347.335 135.844 337.28 131.683C326.854 127.352 315.671 125.135 304.38 125.161C288.541 125.161 273.087 129.499 259.657 137.691C256.444 139.651 253.392 141.804 250.5 144.149C247.608 141.804 244.556 139.651 241.343 137.691C227.913 129.499 212.459 125.161 196.62 125.161C185.214 125.161 174.162 127.346 163.72 131.683C153.631 135.86 144.539 141.868 136.732 149.515C128.956 157.101 122.745 166.14 118.45 176.118C113.984 186.495 111.703 197.515 111.703 208.857C111.703 219.556 113.888 230.705 118.225 242.046C121.856 251.524 127.061 261.356 133.711 271.283C144.25 286.994 158.74 303.38 176.732 319.991C206.548 347.525 236.074 366.546 237.327 367.317L244.942 372.2C248.315 374.353 252.653 374.353 256.026 372.2L263.641 367.317C264.894 366.513 294.388 347.525 324.236 319.991C342.228 303.38 356.718 286.994 367.256 271.283C373.907 261.356 379.144 251.524 382.743 242.046C387.08 230.705 389.265 219.556 389.265 208.857C389.297 197.515 387.016 186.495 382.55 176.118V176.118Z" fill="url(#paint1_linear_20_13)"/>
<defs>
<linearGradient id="paint0_linear_20_13" x1="0" y1="0" x2="500" y2="500" gradientUnits="userSpaceOnUse">
<stop stop-color="#8F1FFF"/>
<stop offset="1" stop-color="#760BE0"/>
</linearGradient>
<linearGradient id="paint1_linear_20_13" x1="112" y1="125" x2="389" y2="374" gradientUnits="userSpaceOnUse">
<stop stop-color="white"/>
<stop offset="1" stop-color="#E2C5FF"/>
</linearGradient>
</defs>
</svg>
