<svg width="500" height="500" viewBox="0 0 500 500" fill="none" xmlns="http://www.w3.org/2000/svg">
<rect width="500" height="500" rx="90" fill="url(#paint0_linear_20_12)"/>
<path d="M345.691 237.327C339.7 190.143 299.302 153.542 250.5 153.542C212.72 153.542 179.902 175.612 164.919 210.418C135.473 219.232 113.417 247.033 113.417 276.917C113.417 313.34 142.053 342.922 177.956 345.061V345.458H332.613V345.417L332.75 345.458C362.991 345.458 387.583 320.866 387.583 290.625C387.567 278.336 383.431 266.407 375.837 256.745C368.243 247.083 357.628 240.246 345.691 237.327V237.327ZM195.667 249.5H236.792V208.375H264.208V249.5H305.333L250.5 318.042L195.667 249.5Z" fill="url(#paint1_linear_20_12)"/>
<defs>
<linearGradient id="paint0_linear_20_12" x1="0" y1="0" x2="500" y2="500" gradientUnits="userSpaceOnUse">
<stop stop-color="#8F1FFF"/>
<stop offset="1" stop-color="#760BE0"/>
</linearGradient>
<linearGradient id="paint1_linear_20_12" x1="113" y1="154" x2="388" y2="345" gradientUnits="userSpaceOnUse">
<stop stop-color="white"/>
<stop offset="1" stop-color="#E2C5FF"/>
</linearGradient>
</defs>
</svg>
