<svg width="64" height="64" viewBox="0 0 64 64" fill="none" xmlns="http://www.w3.org/2000/svg">
<g filter="url(#filter0_i)">
<rect width="64" height="64" rx="10" fill="#7631EA"/>
<rect width="64" height="64" rx="10" fill="url(#paint0_linear)"/>
</g>
<g filter="url(#filter1_d)">
<path d="M47 43C47 43.7956 46.6839 44.5587 46.1213 45.1213C45.5587 45.6839 44.7956 46 44 46H20C19.2044 46 18.4413 45.6839 17.8787 45.1213C17.3161 44.5587 17 43.7956 17 43V22C17 21.2044 17.3161 20.4413 17.8787 19.8787C18.4413 19.3161 19.2044 19 20 19H27.5L30.5 23.5H44C44.7956 23.5 45.5587 23.8161 46.1213 24.3787C46.6839 24.9413 47 25.7044 47 26.5V43Z" fill="#C4C4C4"/>
<path d="M47 43C47 43.7956 46.6839 44.5587 46.1213 45.1213C45.5587 45.6839 44.7956 46 44 46H20C19.2044 46 18.4413 45.6839 17.8787 45.1213C17.3161 44.5587 17 43.7956 17 43V22C17 21.2044 17.3161 20.4413 17.8787 19.8787C18.4413 19.3161 19.2044 19 20 19H27.5L30.5 23.5H44C44.7956 23.5 45.5587 23.8161 46.1213 24.3787C46.6839 24.9413 47 25.7044 47 26.5V43Z" fill="url(#paint1_linear)"/>
</g>
<defs>
<filter id="filter0_i" x="0" y="0" width="64" height="65" filterUnits="userSpaceOnUse" color-interpolation-filters="sRGB">
<feFlood flood-opacity="0" result="BackgroundImageFix"/>
<feBlend mode="normal" in="SourceGraphic" in2="BackgroundImageFix" result="shape"/>
<feColorMatrix in="SourceAlpha" type="matrix" values="0 0 0 0 0 0 0 0 0 0 0 0 0 0 0 0 0 0 127 0" result="hardAlpha"/>
<feOffset dy="1"/>
<feGaussianBlur stdDeviation="0.5"/>
<feComposite in2="hardAlpha" operator="arithmetic" k2="-1" k3="1"/>
<feColorMatrix type="matrix" values="0 0 0 0 0.96178 0 0 0 0 0.955184 0 0 0 0 0.966963 0 0 0 0.25 0"/>
<feBlend mode="normal" in2="shape" result="effect1_innerShadow"/>
</filter>
<filter id="filter1_d" x="13" y="19" width="38" height="35" filterUnits="userSpaceOnUse" color-interpolation-filters="sRGB">
<feFlood flood-opacity="0" result="BackgroundImageFix"/>
<feColorMatrix in="SourceAlpha" type="matrix" values="0 0 0 0 0 0 0 0 0 0 0 0 0 0 0 0 0 0 127 0"/>
<feOffset dy="4"/>
<feGaussianBlur stdDeviation="2"/>
<feColorMatrix type="matrix" values="0 0 0 0 0 0 0 0 0 0 0 0 0 0 0 0 0 0 0.15 0"/>
<feBlend mode="normal" in2="BackgroundImageFix" result="effect1_dropShadow"/>
<feBlend mode="normal" in="SourceGraphic" in2="effect1_dropShadow" result="shape"/>
</filter>
<linearGradient id="paint0_linear" x1="32" y1="0" x2="32" y2="64" gradientUnits="userSpaceOnUse">
<stop stop-color="#8614F8"/>
<stop offset="1" stop-color="#760BE0"/>
</linearGradient>
<linearGradient id="paint1_linear" x1="27.3991" y1="20.4766" x2="34.2718" y2="45.3728" gradientUnits="userSpaceOnUse">
<stop stop-color="white"/>
<stop offset="1" stop-color="#CCBED5"/>
</linearGradient>
</defs>
</svg>
