<svg id="Capa_1" data-name="Capa 1" xmlns="http://www.w3.org/2000/svg" viewBox="0 0 428.89 416.67"><defs><style>.cls-1{fill:#fff;}</style></defs><title>Openuade2svg</title><path class="cls-1" d="M445.87,99.22s-75.07,269.62-80.43,294.9-23,26.55-23,26.55H219.65s-122.36-1.1-131.8-1.4c-9.37,0-18.19-6.08-18.19-15.46,0-8.76,7.54-14.74,16.17-15.48l0-.08h1.78c16.66.08,145.61.7,194,0,51.83-.77,58.47-29.37,58.47-29.37s62.8-226.21,74-266.55c22.47-50-9.19-56.17-9.19-56.17H170.89c-36-2.55-43.66,26.3-43.66,26.3S52.93,305.27,41.44,372.67s52.09,79.66,52.09,79.66,183.83.77,241.27,0c45.58.34,54.39-23.74,54.39-23.74s60.51-219.07,75.83-278S445.87,99.22,445.87,99.22Zm-257,77.8c1.78-24.39,23.21-44.36,47.86-44.44s43,19.82,40.8,44.24c-1.48,16.83-12.26,31.38-26.83,38.71L279.07,272,172.16,272l37.32-56.43C196.11,208.31,187.69,193.82,188.91,177Z" transform="translate(-40.05 -36)"/></svg>