<svg width="64" height="64" viewBox="0 0 64 64" fill="none" xmlns="http://www.w3.org/2000/svg">
<g filter="url(#filter0_i)">
<rect width="64" height="64" rx="10" fill="#7631EA"/>
<rect width="64" height="64" rx="10" fill="url(#paint0_linear)"/>
</g>
<g clip-path="url(#clip0)">
<g filter="url(#filter1_d)">
<path fill-rule="evenodd" clip-rule="evenodd" d="M32.5411 17.7175C20.5185 17.7175 13.6484 31.4576 13.6484 31.4576C13.6484 31.4576 20.5185 45.1978 32.5411 45.1978C44.5637 45.1978 51.4337 31.4576 51.4337 31.4576C51.4337 31.4576 44.5637 17.7175 32.5411 17.7175ZM37.695 31.4577C37.695 34.3033 35.3882 36.6102 32.5425 36.6102C29.6968 36.6102 27.39 34.3033 27.39 31.4577C27.39 28.612 29.6968 26.3051 32.5425 26.3051C35.3882 26.3051 37.695 28.612 37.695 31.4577Z" fill="url(#paint1_linear)"/>
</g>
</g>
<defs>
<filter id="filter0_i" x="0" y="0" width="64" height="65" filterUnits="userSpaceOnUse" color-interpolation-filters="sRGB">
<feFlood flood-opacity="0" result="BackgroundImageFix"/>
<feBlend mode="normal" in="SourceGraphic" in2="BackgroundImageFix" result="shape"/>
<feColorMatrix in="SourceAlpha" type="matrix" values="0 0 0 0 0 0 0 0 0 0 0 0 0 0 0 0 0 0 127 0" result="hardAlpha"/>
<feOffset dy="1"/>
<feGaussianBlur stdDeviation="0.5"/>
<feComposite in2="hardAlpha" operator="arithmetic" k2="-1" k3="1"/>
<feColorMatrix type="matrix" values="0 0 0 0 0.96178 0 0 0 0 0.955184 0 0 0 0 0.966963 0 0 0 0.25 0"/>
<feBlend mode="normal" in2="shape" result="effect1_innerShadow"/>
</filter>
<filter id="filter1_d" x="9.64844" y="17.7175" width="45.7853" height="35.4802" filterUnits="userSpaceOnUse" color-interpolation-filters="sRGB">
<feFlood flood-opacity="0" result="BackgroundImageFix"/>
<feColorMatrix in="SourceAlpha" type="matrix" values="0 0 0 0 0 0 0 0 0 0 0 0 0 0 0 0 0 0 127 0"/>
<feOffset dy="4"/>
<feGaussianBlur stdDeviation="2"/>
<feColorMatrix type="matrix" values="0 0 0 0 0 0 0 0 0 0 0 0 0 0 0 0 0 0 0.15 0"/>
<feBlend mode="normal" in2="BackgroundImageFix" result="effect1_dropShadow"/>
<feBlend mode="normal" in="SourceGraphic" in2="effect1_dropShadow" result="shape"/>
</filter>
<linearGradient id="paint0_linear" x1="32" y1="0" x2="32" y2="64" gradientUnits="userSpaceOnUse">
<stop stop-color="#8614F8"/>
<stop offset="1" stop-color="#760BE0"/>
</linearGradient>
<linearGradient id="paint1_linear" x1="26.7462" y1="19.2204" x2="32.5411" y2="45.1978" gradientUnits="userSpaceOnUse">
<stop stop-color="white"/>
<stop offset="1" stop-color="#CCBED5"/>
</linearGradient>
<clipPath id="clip0">
<rect width="41.2203" height="41.2203" fill="white" transform="translate(11.9336 10.8475)"/>
</clipPath>
</defs>
</svg>
